PathFileType	3	(X/Y/Z)	E:\ViconData\BIOM9541 2025\Week 7\Mon0900\MingceV2 Cal 01.trc
DataRate	CameraRate	NumFrames	NumMarkers	Units	OrigDataRate	OrigDataStartFrame	OrigNumFrames
200.0	200.0	20	19	mm	200.0	1	273	
Frame#	Time	C7			CLAV			RBAK			LASI			RASI			LPSI			RPSI			LTHI			LKNE			LTIB			LANK			LHEE			LTOE			RTHI			RKNE			RTIB			RANK			RHEE			RTOE			
		X1	Y1	Z1	X2	Y2	Z2	X3	Y3	Z3	X4	Y4	Z4	X5	Y5	Z5	X6	Y6	Z6	X7	Y7	Z7	X8	Y8	Z8	X9	Y9	Z9	X10	Y10	Z10	X11	Y11	Z11	X12	Y12	Z12	X13	Y13	Z13	X14	Y14	Z14	X15	Y15	Z15	X16	Y16	Z16	X17	Y17	Z17	X18	Y18	Z18	X19	Y19	Z19	
1	0	238.65866	1431.0167	-1054.92	242.71501	1381.9661	-914.44867	81.953629	1410.028	-992.23926	336.80777	944.27374	-805.02765	108.93941	969.47937	-820.80652	266.94	977.44952	-1019.9474	197.88689	981.96118	-1018.1353	407.81708	669.8988	-872.1897	367.44037	471.32141	-912.54858	377.29517	262.95193	-992.09375	332.59842	79.985458	-957.14612	277.05722	45.490234	-1005.2259	323.28259	43.548893	-819.38727	47.028069	705.00818	-880.97247	94.692467	473.99792	-938.21631	78.980515	367.79318	-1009.6703	125.29147	78.865196	-986.44873	187.54936	49.810246	-1016.9799	98.338936	43.085285	-849.56683
2	0.005	238.75063	1430.9557	-1054.9084	242.7317	1381.9991	-914.46472	82.018623	1410.0227	-992.28796	336.81784	944.28894	-805.00916	108.91981	969.48187	-820.81146	266.99664	977.40546	-1019.8892	197.93741	981.89697	-1018.0891	407.8353	669.88672	-872.20312	367.53503	471.59558	-912.42078	377.33749	262.9964	-992.06921	332.65341	80.029076	-957.12524	277.1413	45.359394	-1005.1263	323.28644	43.541187	-819.44299	47.014629	704.97101	-881.03113	94.734039	474.02271	-938.44922	79.187553	367.86069	-1008.7768	125.26406	78.806717	-986.52435	187.53207	49.75843	-1017.0181	98.324814	43.121971	-849.63043
3	0.01	238.85144	1430.8116	-1054.9244	242.75899	1382.0125	-914.48376	82.074646	1409.9934	-992.35028	336.80429	944.31085	-804.95123	108.90663	969.4812	-820.81683	267.04501	977.33008	-1019.8212	197.97362	981.82678	-1018.0408	407.85562	669.86816	-872.20264	368.20978	472.32455	-911.51086	377.36279	262.99579	-992.10303	332.64951	79.990631	-957.23737	277.18008	45.279579	-1005.113	323.31168	43.529892	-819.51874	47.06311	704.94678	-881.1626	94.815384	473.98309	-938.67731	79.258644	367.8382	-1008.948	125.31196	78.79039	-986.54242	187.54749	49.714241	-1017.0458	98.349754	43.132626	-849.6759
4	0.015	238.89938	1430.7797	-1054.9579	242.80238	1381.9652	-914.47699	82.137253	1409.942	-992.39209	336.78616	944.28296	-804.87817	108.90112	969.4267	-820.78802	267.07083	977.32892	-1019.797	197.99696	981.82336	-1018.0211	407.8522	669.84973	-872.15808	368.23032	472.29874	-911.49567	377.37863	262.95627	-992.10767	332.05142	79.314507	-957.93402	277.18448	45.324749	-1005.1959	323.31238	43.528202	-819.50519	47.130276	704.92609	-881.23907	94.90139	473.96402	-938.86023	79.325516	367.85876	-1009.1373	125.32939	78.815613	-986.57312	187.53946	49.72049	-1017.0798	98.349213	43.114056	-849.68433
5	0.02	238.92224	1430.7327	-1055.0103	242.85068	1381.8737	-914.43915	82.175491	1409.8689	-992.41852	336.76276	944.23682	-804.75079	108.92594	969.34344	-820.72034	267.08524	977.29529	-1019.7477	198.01176	981.79498	-1017.995	407.85968	669.83136	-872.02411	368.19028	472.13339	-911.60345	377.38516	262.88525	-992.09766	332.04462	79.250992	-957.92444	277.16016	45.403553	-1005.2368	323.30048	43.528404	-819.44727	47.196186	704.88971	-881.31818	94.991806	473.91309	-939.01074	79.197762	367.80463	-1010.2739	125.33759	78.810783	-986.59717	187.5688	49.731647	-1017.1231	98.368492	43.096188	-849.62445
6	0.025	238.9456	1430.6295	-1055.0293	242.89809	1381.791	-914.40063	82.21064	1409.7841	-992.43457	336.74261	944.19354	-804.63562	108.9314	969.27899	-820.677	267.12042	977.21472	-1019.67	198.05482	981.7326	-1017.9454	407.84381	669.79602	-871.92188	368.14401	471.90015	-911.75055	377.39185	262.79471	-992.13275	332.02289	79.143829	-957.94659	277.17645	45.396454	-1005.1791	323.28409	43.523598	-819.35693	47.282341	704.81439	-881.37988	95.080383	473.85294	-939.15875	79.222198	367.8129	-1010.3926	125.34474	78.786919	-986.59937	187.64099	49.718735	-1017.1799	98.374573	43.044224	-849.57666
7	0.03	239.00093	1430.5577	-1055.0166	242.93936	1381.766	-914.40778	82.262772	1409.7356	-992.47235	336.72278	944.1814	-804.56116	108.90647	969.25085	-820.65125	267.1506	977.15356	-1019.6027	198.07852	981.66052	-1017.8992	407.82581	669.78699	-871.90662	367.45084	471.00101	-912.51111	377.39148	262.75034	-992.19165	332.00989	79.121758	-957.99072	277.20477	45.361683	-1005.1747	323.27933	43.548782	-819.34363	47.329876	704.75977	-881.42535	95.147728	473.81696	-939.28326	79.272011	367.79251	-1010.4453	125.32015	78.745689	-986.66034	187.65547	49.680302	-1017.2405	98.377213	43.033241	-849.59381
8	0.035	239.06581	1430.5454	-1054.9891	242.96388	1381.776	-914.41589	82.309303	1409.7335	-992.50513	336.69858	944.19476	-804.51178	108.8917	969.25989	-820.64062	267.17993	977.15149	-1019.5311	198.11365	981.63794	-1017.85	407.82019	669.77667	-871.94617	367.52338	471.16406	-912.46588	377.39865	262.81909	-992.17084	332.49274	79.719398	-957.54028	277.24713	45.245087	-1005.0468	323.26141	43.552105	-819.36975	47.367294	704.74255	-881.44873	95.166779	473.80759	-939.41315	79.423492	367.82999	-1009.6716	125.36895	78.668045	-986.65369	187.6487	49.663345	-1017.2756	98.347282	43.065372	-849.6131
9	0.04	238.81209	1430.303	-1055.3701	243.0033	1381.7759	-914.4408	82.357727	1409.7307	-992.50537	336.68399	944.20081	-804.44672	108.87956	969.25323	-820.64008	267.20544	977.18817	-1019.4818	198.15782	981.62671	-1017.7869	407.82016	669.73779	-871.95844	368.10397	471.90109	-911.82166	377.39532	262.81421	-992.22357	332.4263	79.650238	-957.66901	277.28564	45.165863	-1004.9426	323.25748	43.497765	-819.47192	47.394447	704.71063	-881.49323	95.190987	473.82376	-939.56171	79.450798	367.82462	-1009.8026	125.3482	78.640007	-986.66443	187.63324	49.649223	-1017.2833	98.354172	43.094769	-849.64459
10	0.045	239.14937	1430.5449	-1054.9645	243.06714	1381.7177	-914.46173	82.405853	1409.7054	-992.52814	336.6622	944.17401	-804.38934	108.88195	969.21118	-820.62976	267.22406	977.2522	-1019.4411	198.19566	981.65094	-1017.7806	407.83762	669.69678	-871.88293	368.08347	471.83762	-911.86237	377.42996	262.8071	-992.20038	332.43149	79.636086	-957.64856	277.26114	45.235844	-1004.9865	323.2749	43.445976	-819.55511	47.440151	704.71136	-881.56274	95.219032	473.85513	-939.7464	79.513741	367.85336	-1009.9108	125.36724	78.678749	-986.67639	187.64955	49.695042	-1017.3726	98.33091	43.107037	-849.63123
11	0.05	239.19008	1430.5264	-1054.9792	243.11378	1381.6328	-914.47742	82.456078	1409.6768	-992.54401	336.63367	944.12811	-804.31659	108.88355	969.13605	-820.61334	267.28113	977.29382	-1019.4188	198.24792	981.68518	-1017.7697	407.87219	669.65015	-871.755	367.55008	471.13394	-912.36743	377.44394	262.74835	-992.18726	332.43188	79.575577	-957.63739	277.30243	45.25029	-1004.9423	323.28613	43.391624	-819.56982	47.508041	704.70728	-881.64197	95.255524	473.88803	-939.90906	79.568001	367.88477	-1010.0823	125.38086	78.70063	-986.7077	187.6985	49.735104	-1017.4305	98.323296	43.086819	-849.61395
12	0.055	239.26062	1430.4856	-1054.9943	243.15508	1381.5973	-914.47888	82.530899	1409.6294	-992.57861	336.61981	944.09967	-804.22894	108.87697	969.08331	-820.6026	267.36072	977.255	-1019.3764	198.31303	981.64594	-1017.7268	407.88303	669.60809	-871.65594	367.51779	470.98227	-912.38495	377.48337	262.68121	-992.22687	332.07281	79.082008	-958.04419	277.37207	45.261108	-1004.9338	323.2843	43.370735	-819.57166	47.65115	704.64789	-881.75684	95.298149	473.86844	-940.0639	79.530357	367.85089	-1010.792	125.41547	78.715149	-986.76617	187.78166	49.745789	-1017.4832	98.341408	43.069508	-849.62457
13	0.06	239.33096	1430.394	-1055.0027	243.20122	1381.6075	-914.47321	82.589981	1409.5938	-992.60919	336.59018	944.09766	-804.15588	108.86446	969.08081	-820.61353	267.44247	977.18134	-1019.3491	198.38422	981.5686	-1017.7043	407.92429	669.6297	-871.5965	367.53055	471.02676	-912.37848	377.50131	262.65768	-992.28021	332.08554	79.048431	-958.12976	277.43652	45.182148	-1004.9233	323.28085	43.378433	-819.56848	47.714672	704.58386	-881.83325	95.419586	473.81302	-940.20563	79.623978	367.80188	-1010.8751	125.40087	78.662682	-986.8186	187.80762	49.716808	-1017.5662	98.368065	43.055458	-849.70319
14	0.065	239.13387	1430.1406	-1055.3276	243.22585	1381.6603	-914.43317	82.632889	1409.5956	-992.63263	336.55487	944.11542	-804.0835	108.83017	969.11523	-820.63153	267.51154	977.08905	-1019.3065	198.46036	981.49579	-1017.6773	407.91138	669.66772	-871.56525	367.53671	471.0947	-912.34619	377.49503	262.69427	-992.28442	332.08374	79.066689	-958.20068	277.50214	45.07037	-1004.8939	323.27362	43.440292	-819.54321	48.079147	704.297	-882.02563	95.496559	473.76572	-940.32306	79.699478	367.72568	-1010.9279	125.42332	78.572487	-986.81671	187.81584	49.666512	-1017.595	98.376022	43.06974	-849.74512
15	0.07	239.40804	1430.2626	-1054.9625	243.26711	1381.6714	-914.37103	82.661484	1409.5768	-992.61969	336.52316	944.12329	-803.97968	108.77319	969.11987	-820.6264	267.55392	977.04059	-1019.2412	198.47118	981.48267	-1017.6284	407.88446	669.68005	-871.53198	367.55402	471.17776	-912.29333	377.49023	262.70032	-992.27539	332.03787	79.058617	-958.22089	277.49033	44.973366	-1004.8156	323.26501	43.472992	-819.52515	47.84803	704.45068	-881.98114	95.535179	473.7041	-940.38354	79.796799	367.75787	-1010.5611	125.46813	78.525063	-986.77722	187.79311	49.613113	-1017.5456	98.378433	43.050652	-849.73187
16	0.075	239.39836	1430.2163	-1054.9642	243.32364	1381.6501	-914.3172	82.648163	1409.5652	-992.65057	336.48199	944.08386	-803.91882	108.77017	969.086	-820.62756	267.54715	977.10083	-1019.2094	198.46783	981.50574	-1017.6219	407.84314	669.65161	-871.44751	367.55124	471.18164	-912.23712	377.46426	262.70645	-992.21991	332.02048	79.04702	-958.19812	277.4202	45.058285	-1004.8493	323.24948	43.4352	-819.49213	47.817841	704.45325	-882.01477	95.544121	473.74478	-940.46515	79.7938	367.78003	-1010.6138	125.42278	78.547569	-986.78534	187.73434	49.649914	-1017.551	98.32962	43.039837	-849.68677
17	0.08	239.14716	1429.9764	-1055.2708	243.37787	1381.5739	-914.26233	82.665352	1409.5387	-992.65576	336.46594	944.04932	-803.82812	108.73485	969.0332	-820.62805	267.52631	977.09503	-1019.1543	198.47514	981.54218	-1017.5955	407.85645	669.60461	-871.31696	367.5007	471.0062	-912.24115	377.46231	262.62122	-992.20642	332.31345	79.376114	-957.85254	277.3613	45.117771	-1004.8203	323.24307	43.379463	-819.48199	47.777756	704.45923	-882.05542	95.528984	473.77911	-940.54596	79.795052	367.7951	-1010.6622	125.40328	78.596962	-986.74969	187.72389	49.667717	-1017.496	98.266594	43.043217	-849.5885
18	0.085	239.43658	1430.2811	-1054.9268	243.45276	1381.5149	-914.23212	82.706856	1409.5089	-992.62549	336.42441	944.01294	-803.75616	108.69241	968.99866	-820.62946	267.57889	977.11401	-1019.0885	198.52882	981.55054	-1017.5518	407.84103	669.55963	-871.25012	367.97226	471.47406	-911.78729	377.48654	262.63141	-992.14819	332.33368	79.36927	-957.78943	277.36642	45.12405	-1004.7645	323.24155	43.33643	-819.52704	47.748489	704.46191	-882.12238	95.521149	473.78094	-940.62964	79.811974	367.81763	-1010.7168	125.38988	78.596039	-986.724	187.73315	49.673615	-1017.4299	98.261696	43.037525	-849.55145
19	0.09	239.51869	1430.2677	-1054.8889	243.47124	1381.5281	-914.20544	82.759972	1409.5078	-992.65289	336.39346	944.01526	-803.75916	108.64719	968.9939	-820.6803	267.64688	977.11041	-1019.0579	198.58952	981.54663	-1017.5366	407.84192	669.55658	-871.20819	367.5072	471.01648	-912.16803	377.5336	262.67038	-992.12433	332.03918	79.034645	-958.08911	277.39795	45.114639	-1004.8174	323.22812	43.36747	-819.54651	47.778843	704.44904	-882.19104	95.553444	473.78558	-940.76245	79.861198	367.82074	-1010.8265	125.39467	78.605003	-986.76782	187.77315	49.679237	-1017.475	98.247566	43.040302	-849.60089
20	0.095	239.58583	1430.2985	-1054.8359	243.49199	1381.5919	-914.14752	82.81076	1409.5231	-992.66388	336.37866	944.01819	-803.76569	108.61385	969.03577	-820.75732	267.73291	977.08148	-1019.0437	198.66451	981.5376	-1017.5236	407.8299	669.60657	-871.1925	367.52652	471.11536	-912.14746	377.56311	262.7352	-992.11072	332.05737	79.064537	-958.1543	277.47754	45.033802	-1004.8159	323.24762	43.413898	-819.56848	48.052242	704.2132	-882.35443	95.591522	473.78195	-940.88251	79.828636	367.78058	-1011.4087	125.43592	78.584709	-986.79333	187.80354	49.642086	-1017.4955	98.285629	43.069283	-849.70135
